# xmcd CD database file
#
# Track frame offsets:
#	150
#	14439
#	36780
#	66343
#	85543
#	110368
#	127918
#	142975
#	163525
#	179973
#
# Disc length: 2819 seconds
#
# Revision: 0
# Processed by: cddbd v1.5.2PL0 Copyright (c) Steve Scherf et al.
# Submitted via: CDex 1.51
#
DISCID=810b010a
DTITLE=Janéo - Bo'M
DYEAR=2006
DGENRE=Jazz
TTITLE0=Pif Blues
TTITLE1=Des Calebasses
TTITLE2=Bô'M1
TTITLE3=Flanâde
TTITLE4=Candide Noise
TTITLE5=JAP
TTITLE6=Mélancolin'ra
TTITLE7=Bô'M2
TTITLE8=Noël à la Cannelle
TTITLE9=Footprints
EXTD=YEAR: 2006
EXTT0=
EXTT1=
EXTT2=
EXTT3=
EXTT4=
EXTT5=
EXTT6=
EXTT7=
EXTT8=
EXTT9=
PLAYORDER=
